<?xml version="1.0" encoding="UTF-8" standalone="no"?>
<!DOCTYPE svg PUBLIC "-//W3C//DTD SVG 1.1//EN"
 "http://www.w3.org/Graphics/SVG/1.1/DTD/svg11.dtd">
<!-- Generated by graphviz version 2.38.0 (20140413.2041)
 -->
<!-- Title: %3 Pages: 1 -->
<svg width="1355pt" height="2928pt"
 viewBox="0.00 0.00 1354.84 2927.59" xmlns="http://www.w3.org/2000/svg" xmlns:xlink="http://www.w3.org/1999/xlink">
<g id="graph0" class="graph" transform="scale(1 1) rotate(0) translate(4 2923.59)">
<title>%3</title>
<polygon fill="white" stroke="none" points="-4,4 -4,-2923.59 1350.84,-2923.59 1350.84,4 -4,4"/>
<!-- unhappy -->
<g id="node1" class="node"><title>unhappy</title>
<path fill="none" stroke="black" d="M426.87,-2919.59C426.87,-2919.59 343.13,-2919.59 343.13,-2919.59 337.13,-2919.59 331.13,-2913.59 331.13,-2907.59 331.13,-2907.59 331.13,-2895.59 331.13,-2895.59 331.13,-2889.59 337.13,-2883.59 343.13,-2883.59 343.13,-2883.59 426.87,-2883.59 426.87,-2883.59 432.87,-2883.59 438.87,-2889.59 438.87,-2895.59 438.87,-2895.59 438.87,-2907.59 438.87,-2907.59 438.87,-2913.59 432.87,-2919.59 426.87,-2919.59"/>
<text text-anchor="middle" x="385" y="-2900.19" font-family="Times,serif" font-size="14.00">React 讓你難過</text>
</g>
<!-- are_you_using_react_boilerplates -->
<g id="node2" class="node"><title>are_you_using_react_boilerplates</title>
<polygon fill="none" stroke="black" points="385,-2846.79 257,-2799.39 385,-2751.99 513,-2799.39 385,-2846.79"/>
<text text-anchor="middle" x="385" y="-2807.79" font-family="Times,serif" font-size="14.00">你是通過複製範例</text>
<text text-anchor="middle" x="385" y="-2788.19" font-family="Times,serif" font-size="14.00">    學習 React 嗎？</text>
</g>
<!-- unhappy&#45;&gt;are_you_using_react_boilerplates -->
<g id="edge1" class="edge"><title>unhappy&#45;&gt;are_you_using_react_boilerplates</title>
<path fill="none" stroke="black" d="M385,-2883.14C385,-2875.73 385,-2866.63 385,-2857.2"/>
<polygon fill="black" stroke="black" points="388.5,-2856.92 385,-2846.92 381.5,-2856.92 388.5,-2856.92"/>
</g>
<!-- boilerplates_dont_teach -->
<g id="node3" class="node"><title>boilerplates_dont_teach</title>
<polygon fill="none" stroke="black" points="380,-2696.79 0,-2696.79 0,-2497.99 380,-2497.99 380,-2696.79"/>
<text text-anchor="middle" x="190" y="-2681.39" font-family="Times,serif" font-size="14.00">跟著範例學 React 就好像在一家超棒的</text>
<text text-anchor="middle" x="190" y="-2661.79" font-family="Times,serif" font-size="14.00">    餐廳里通過點菜來學做飯一樣。這壓根沒用。你得從基礎</text>
<text text-anchor="middle" x="190" y="-2642.19" font-family="Times,serif" font-size="14.00">    學起，不要怕有所遺漏。這沒有根據。人們之所以建立</text>
<text text-anchor="middle" x="190" y="-2622.59" font-family="Times,serif" font-size="14.00">    範例是為了展示他們所創造的、學到的，而不是為了</text>
<text text-anchor="middle" x="190" y="-2602.99" font-family="Times,serif" font-size="14.00">    幫助你學習。範例是為更有經驗的人準備的，並且</text>
<text text-anchor="middle" x="190" y="-2583.39" font-family="Times,serif" font-size="14.00">    通常要比被承認的更具試驗性。範例彼此競爭，為了</text>
<text text-anchor="middle" x="190" y="-2563.79" font-family="Times,serif" font-size="14.00">    獲得更多的注意力往往有所誇大。如果你確實對 React</text>
<text text-anchor="middle" x="190" y="-2544.19" font-family="Times,serif" font-size="14.00">    感興趣，你應該按照　Pete Hunt 的指南來學習:</text>
<text text-anchor="middle" x="190" y="-2524.59" font-family="Times,serif" font-size="14.00">    https://github.com/petehunt/react&#45;howto.</text>
<text text-anchor="middle" x="190" y="-2510.59" font-family="Times,serif" font-size="14.00">    在你能自己建立範例前不要參考網路上找的。</text>
</g>
<!-- are_you_using_react_boilerplates&#45;&gt;boilerplates_dont_teach -->
<g id="edge2" class="edge"><title>are_you_using_react_boilerplates&#45;&gt;boilerplates_dont_teach</title>
<path fill="none" stroke="black" d="M351.478,-2764.01C335.042,-2747.15 314.263,-2725.84 293.13,-2704.17"/>
<polygon fill="black" stroke="black" points="295.443,-2701.53 285.956,-2696.81 290.431,-2706.41 295.443,-2701.53"/>
<text text-anchor="middle" x="329" y="-2722.99" font-family="Times,serif" font-size="14.00">是</text>
</g>
<!-- steal_from_boilerplates -->
<g id="node4" class="node"><title>steal_from_boilerplates</title>
<polygon fill="none" stroke="black" points="764,-2677.09 398,-2677.09 398,-2517.69 764,-2517.69 764,-2677.09"/>
<text text-anchor="middle" x="581" y="-2661.79" font-family="Times,serif" font-size="14.00">雖然範例對於學習它綜合的各種技術</text>
<text text-anchor="middle" x="581" y="-2642.19" font-family="Times,serif" font-size="14.00">    不是一個很好的方法，但是當你掌握這裡的每一項</text>
<text text-anchor="middle" x="581" y="-2622.59" font-family="Times,serif" font-size="14.00">    技術後，示例項目能夠幫助你了解這些技術是如何</text>
<text text-anchor="middle" x="581" y="-2602.99" font-family="Times,serif" font-size="14.00">    協同工作的。這是發現新技術的好途徑，但是不要</text>
<text text-anchor="middle" x="581" y="-2583.39" font-family="Times,serif" font-size="14.00">    覺得有使用的義務。不過也不要把示例項目束之高閣，</text>
<text text-anchor="middle" x="581" y="-2563.79" font-family="Times,serif" font-size="14.00">    只要記住範例是各種技巧的展示手法，並不能</text>
<text text-anchor="middle" x="581" y="-2544.19" font-family="Times,serif" font-size="14.00">    被當做應用堅實的基礎。</text>
<text text-anchor="middle" x="581" y="-2524.59" font-family="Times,serif" font-size="14.00"> &#160;&#160;&#160;</text>
</g>
<!-- are_you_using_react_boilerplates&#45;&gt;steal_from_boilerplates -->
<g id="edge3" class="edge"><title>are_you_using_react_boilerplates&#45;&gt;steal_from_boilerplates</title>
<path fill="none" stroke="black" d="M418.694,-2764.01C440.195,-2742.07 469.09,-2712.59 496.541,-2684.58"/>
<polygon fill="black" stroke="black" points="499.359,-2686.7 503.859,-2677.11 494.36,-2681.8 499.359,-2686.7"/>
<text text-anchor="middle" x="473" y="-2722.99" font-family="Times,serif" font-size="14.00">否</text>
</g>
<!-- are_you_using_flux -->
<g id="node5" class="node"><title>are_you_using_flux</title>
<polygon fill="none" stroke="black" points="431,-2461.39 273.396,-2413.99 431,-2366.59 588.604,-2413.99 431,-2461.39"/>
<text text-anchor="middle" x="431" y="-2422.39" font-family="Times,serif" font-size="14.00">你使用 Flux</text>
<text text-anchor="middle" x="431" y="-2402.79" font-family="Times,serif" font-size="14.00"> &#160;&#160;&#160;（或者 Redux 嗎）？</text>
</g>
<!-- boilerplates_dont_teach&#45;&gt;are_you_using_flux -->
<g id="edge4" class="edge"><title>boilerplates_dont_teach&#45;&gt;are_you_using_flux</title>
<path fill="none" stroke="black" d="M320.727,-2498C341.172,-2482.61 361.222,-2467.52 378.499,-2454.51"/>
<polygon fill="black" stroke="black" points="380.862,-2457.11 386.747,-2448.3 376.653,-2451.52 380.862,-2457.11"/>
</g>
<!-- steal_from_boilerplates&#45;&gt;are_you_using_flux -->
<g id="edge5" class="edge"><title>steal_from_boilerplates&#45;&gt;are_you_using_flux</title>
<path fill="none" stroke="black" d="M515.862,-2517.62C499.544,-2497.89 482.592,-2477.39 468.169,-2459.94"/>
<polygon fill="black" stroke="black" points="470.801,-2457.63 461.732,-2452.16 465.407,-2462.1 470.801,-2457.63"/>
</g>
<!-- is_too_much_flux -->
<g id="node6" class="node"><title>is_too_much_flux</title>
<polygon fill="none" stroke="black" points="300,-2311.39 46,-2263.99 300,-2216.59 554,-2263.99 300,-2311.39"/>
<text text-anchor="middle" x="300" y="-2272.39" font-family="Times,serif" font-size="14.00">它是否即使有很多的 boilerplate</text>
<text text-anchor="middle" x="300" y="-2252.79" font-family="Times,serif" font-size="14.00"> &#160;&#160;&#160;也沒有明顯的改善你的程式碼架構？</text>
</g>
<!-- are_you_using_flux&#45;&gt;is_too_much_flux -->
<g id="edge6" class="edge"><title>are_you_using_flux&#45;&gt;is_too_much_flux</title>
<path fill="none" stroke="black" d="M398.281,-2376.03C381.28,-2356.82 360.308,-2333.13 342.11,-2312.57"/>
<polygon fill="black" stroke="black" points="344.534,-2310.03 335.285,-2304.86 339.292,-2314.67 344.534,-2310.03"/>
<text text-anchor="middle" x="381" y="-2337.59" font-family="Times,serif" font-size="14.00">是</text>
</g>
<!-- is_not_enough_flux -->
<g id="node7" class="node"><title>is_not_enough_flux</title>
<polygon fill="none" stroke="black" points="788,-2311.39 571.941,-2263.99 788,-2216.59 1004.06,-2263.99 788,-2311.39"/>
<text text-anchor="middle" x="788" y="-2272.39" font-family="Times,serif" font-size="14.00">你是否有一些最頂層且狀態複雜</text>
<text text-anchor="middle" x="788" y="-2252.79" font-family="Times,serif" font-size="14.00"> &#160;&#160;&#160;的 Components 經常出現 Bugs?</text>
</g>
<!-- are_you_using_flux&#45;&gt;is_not_enough_flux -->
<g id="edge7" class="edge"><title>are_you_using_flux&#45;&gt;is_not_enough_flux</title>
<path fill="none" stroke="black" d="M496.064,-2386.02C554.792,-2361.67 641.491,-2325.73 705.153,-2299.34"/>
<polygon fill="black" stroke="black" points="706.871,-2302.42 714.769,-2295.35 704.191,-2295.95 706.871,-2302.42"/>
<text text-anchor="middle" x="638" y="-2337.59" font-family="Times,serif" font-size="14.00">否</text>
</g>
<!-- remove_flux -->
<g id="node8" class="node"><title>remove_flux</title>
<polygon fill="none" stroke="black" points="477.387,-2161.09 182.613,-2161.09 182.613,-2094.49 477.387,-2094.49 477.387,-2161.09"/>
<text text-anchor="middle" x="330" y="-2145.99" font-family="Times,serif" font-size="14.00">移除 Flux。通過閱讀官方文檔</text>
<text text-anchor="middle" x="330" y="-2126.39" font-family="Times,serif" font-size="14.00">     “Thinking in React”，來體會用原生的 React</text>
<text text-anchor="middle" x="330" y="-2106.79" font-family="Times,serif" font-size="14.00">     怎麼建立一個結構良好的應用。</text>
</g>
<!-- is_too_much_flux&#45;&gt;remove_flux -->
<g id="edge8" class="edge"><title>is_too_much_flux&#45;&gt;remove_flux</title>
<path fill="none" stroke="black" d="M309.99,-2218.31C313.369,-2203.19 317.131,-2186.36 320.473,-2171.41"/>
<polygon fill="black" stroke="black" points="323.944,-2171.93 322.71,-2161.4 317.113,-2170.4 323.944,-2171.93"/>
<text text-anchor="middle" x="326" y="-2187.59" font-family="Times,serif" font-size="14.00">是</text>
</g>
<!-- are_you_using_bundler -->
<g id="node9" class="node"><title>are_you_using_bundler</title>
<polygon fill="none" stroke="black" points="541,-2057.6 333.865,-2010.19 541,-1962.79 748.135,-2010.19 541,-2057.6"/>
<text text-anchor="middle" x="541" y="-2018.59" font-family="Times,serif" font-size="14.00">你在使用 JavaScript 打包工具嗎</text>
<text text-anchor="middle" x="541" y="-1998.99" font-family="Times,serif" font-size="14.00"> &#160;&#160;&#160;(例如 Webpack, Browserify)?</text>
</g>
<!-- is_too_much_flux&#45;&gt;are_you_using_bundler -->
<g id="edge9" class="edge"><title>is_too_much_flux&#45;&gt;are_you_using_bundler</title>
<path fill="none" stroke="black" d="M384.815,-2232.26C420.139,-2215.83 459.103,-2192.44 486,-2161.19 509.186,-2134.26 522.941,-2096.71 530.896,-2065.92"/>
<polygon fill="black" stroke="black" points="534.302,-2066.73 533.28,-2056.18 527.503,-2065.06 534.302,-2066.73"/>
<text text-anchor="middle" x="530" y="-2126.39" font-family="Times,serif" font-size="14.00">否</text>
</g>
<!-- is_not_enough_flux&#45;&gt;are_you_using_bundler -->
<g id="edge11" class="edge"><title>is_not_enough_flux&#45;&gt;are_you_using_bundler</title>
<path fill="none" stroke="black" d="M692.927,-2237.41C651.715,-2221.75 606.289,-2197.53 577,-2161.19 555.86,-2134.97 546.803,-2098.3 543.059,-2067.79"/>
<polygon fill="black" stroke="black" points="546.524,-2067.27 541.983,-2057.7 539.563,-2068.01 546.524,-2067.27"/>
<text text-anchor="middle" x="584" y="-2126.39" font-family="Times,serif" font-size="14.00">否</text>
</g>
<!-- add_flux -->
<g id="node10" class="node"><title>add_flux</title>
<polygon fill="none" stroke="black" points="950.455,-2151.49 599.545,-2151.49 599.545,-2104.09 950.455,-2104.09 950.455,-2151.49"/>
<text text-anchor="middle" x="775" y="-2136.19" font-family="Times,serif" font-size="14.00">考慮使用 Flux 的手法。它能夠把 Components 間共享的</text>
<text text-anchor="middle" x="775" y="-2116.59" font-family="Times,serif" font-size="14.00">    state 轉移到外部，並用一致的方式來更新。</text>
</g>
<!-- is_not_enough_flux&#45;&gt;add_flux -->
<g id="edge10" class="edge"><title>is_not_enough_flux&#45;&gt;add_flux</title>
<path fill="none" stroke="black" d="M783.562,-2217.19C781.801,-2199 779.813,-2178.48 778.197,-2161.8"/>
<polygon fill="black" stroke="black" points="781.642,-2161.06 777.194,-2151.45 774.675,-2161.74 781.642,-2161.06"/>
<text text-anchor="middle" x="788" y="-2187.59" font-family="Times,serif" font-size="14.00">是</text>
</g>
<!-- remove_flux&#45;&gt;are_you_using_bundler -->
<g id="edge13" class="edge"><title>remove_flux&#45;&gt;are_you_using_bundler</title>
<path fill="none" stroke="black" d="M389.056,-2094.44C414.906,-2080.28 445.404,-2063.57 472.267,-2048.85"/>
<polygon fill="black" stroke="black" points="474.137,-2051.82 481.226,-2043.94 470.774,-2045.68 474.137,-2051.82"/>
</g>
<!-- are_you_working_on_production_app_with_bundler -->
<g id="node11" class="node"><title>are_you_working_on_production_app_with_bundler</title>
<polygon fill="none" stroke="black" points="433,-1907.5 242.572,-1879.8 433,-1852.09 623.428,-1879.8 433,-1907.5"/>
<text text-anchor="middle" x="433" y="-1878.4" font-family="Times,serif" font-size="14.00">正在做一個要上線的產品嗎?</text>
</g>
<!-- are_you_using_bundler&#45;&gt;are_you_working_on_production_app_with_bundler -->
<g id="edge14" class="edge"><title>are_you_using_bundler&#45;&gt;are_you_working_on_production_app_with_bundler</title>
<path fill="none" stroke="black" d="M508.01,-1969.97C492.656,-1951.72 474.619,-1930.28 460.08,-1912.99"/>
<polygon fill="black" stroke="black" points="462.366,-1910.27 453.251,-1904.87 457.009,-1914.78 462.366,-1910.27"/>
<text text-anchor="middle" x="494" y="-1933.79" font-family="Times,serif" font-size="14.00">是</text>
</g>
<!-- are_you_working_on_production_app_without_bundler -->
<g id="node12" class="node"><title>are_you_working_on_production_app_without_bundler</title>
<polygon fill="none" stroke="black" points="831,-1907.5 640.572,-1879.8 831,-1852.09 1021.43,-1879.8 831,-1907.5"/>
<text text-anchor="middle" x="831" y="-1878.4" font-family="Times,serif" font-size="14.00">正在做一個要上線的產品嗎?</text>
</g>
<!-- are_you_using_bundler&#45;&gt;are_you_working_on_production_app_without_bundler -->
<g id="edge15" class="edge"><title>are_you_using_bundler&#45;&gt;are_you_working_on_production_app_without_bundler</title>
<path fill="none" stroke="black" d="M610.094,-1978.6C660.875,-1956.12 728.955,-1925.98 776.053,-1905.12"/>
<polygon fill="black" stroke="black" points="777.749,-1908.2 785.476,-1900.95 774.915,-1901.8 777.749,-1908.2"/>
<text text-anchor="middle" x="735" y="-1933.79" font-family="Times,serif" font-size="14.00">否</text>
</g>
<!-- add_flux&#45;&gt;are_you_using_bundler -->
<g id="edge12" class="edge"><title>add_flux&#45;&gt;are_you_using_bundler</title>
<path fill="none" stroke="black" d="M729.048,-2104.09C696.532,-2088.03 652.234,-2066.15 614.8,-2047.65"/>
<polygon fill="black" stroke="black" points="615.958,-2044.32 605.442,-2043.03 612.857,-2050.6 615.958,-2044.32"/>
</g>
<!-- do_you_know_es2015 -->
<g id="node13" class="node"><title>do_you_know_es2015</title>
<polygon fill="none" stroke="black" points="670,-1619.8 476.947,-1553.2 670,-1486.6 863.053,-1553.2 670,-1619.8"/>
<text text-anchor="middle" x="670" y="-1571.4" font-family="Times,serif" font-size="14.00">你了解並且能夠接受 ES2015</text>
<text text-anchor="middle" x="670" y="-1551.8" font-family="Times,serif" font-size="14.00"> &#160;&#160;&#160;的特性吗</text>
<text text-anchor="middle" x="670" y="-1532.2" font-family="Times,serif" font-size="14.00"> &#160;&#160;&#160;(比如 classes 和 fat arrows)?</text>
</g>
<!-- are_you_working_on_production_app_with_bundler&#45;&gt;do_you_know_es2015 -->
<g id="edge16" class="edge"><title>are_you_working_on_production_app_with_bundler&#45;&gt;do_you_know_es2015</title>
<path fill="none" stroke="black" d="M412.198,-1854.75C400.224,-1839.28 386.331,-1818.1 380,-1796.6 362.476,-1737.08 344.2,-1707.67 380,-1657 411.417,-1612.53 463.792,-1587.17 515.453,-1572.76"/>
<polygon fill="black" stroke="black" points="516.663,-1576.06 525.427,-1570.11 514.864,-1569.3 516.663,-1576.06"/>
<text text-anchor="middle" x="387" y="-1725.4" font-family="Times,serif" font-size="14.00">是</text>
</g>
<!-- remove_bundler -->
<g id="node14" class="node"><title>remove_bundler</title>
<polygon fill="none" stroke="black" points="685,-1796.4 403,-1796.4 403,-1657.2 685,-1657.2 685,-1796.4"/>
<text text-anchor="middle" x="544" y="-1781.4" font-family="Times,serif" font-size="14.00">如果你只是學習 React 没有必要</text>
<text text-anchor="middle" x="544" y="-1761.8" font-family="Times,serif" font-size="14.00"> &#160;&#160;&#160;使用打包工具。直接 clone 這個專案</text>
<text text-anchor="middle" x="544" y="-1742.2" font-family="Times,serif" font-size="14.00"> &#160;&#160;&#160;https://github.com/jarsbe/react&#45;simple</text>
<text text-anchor="middle" x="544" y="-1728.2" font-family="Times,serif" font-size="14.00"> &#160;&#160;&#160;開始你的學習，還不用考虑打包的問題。</text>
<text text-anchor="middle" x="544" y="-1708.6" font-family="Times,serif" font-size="14.00"> &#160;&#160;&#160;你可以一直使用 &lt;Script&gt; 標籤直到熟悉</text>
<text text-anchor="middle" x="544" y="-1689" font-family="Times,serif" font-size="14.00"> &#160;&#160;&#160;React，然後再了解一下模組系统和不同</text>
<text text-anchor="middle" x="544" y="-1669.4" font-family="Times,serif" font-size="14.00"> &#160;&#160;&#160;的打包工具。</text>
</g>
<!-- are_you_working_on_production_app_with_bundler&#45;&gt;remove_bundler -->
<g id="edge17" class="edge"><title>are_you_working_on_production_app_with_bundler&#45;&gt;remove_bundler</title>
<path fill="none" stroke="black" d="M450.834,-1854.53C460.878,-1840.87 474.039,-1822.97 487.292,-1804.94"/>
<polygon fill="black" stroke="black" points="490.273,-1806.79 493.376,-1796.66 484.633,-1802.65 490.273,-1806.79"/>
<text text-anchor="middle" x="486" y="-1823" font-family="Times,serif" font-size="14.00">否</text>
</g>
<!-- are_you_working_on_production_app_without_bundler&#45;&gt;do_you_know_es2015 -->
<g id="edge19" class="edge"><title>are_you_working_on_production_app_without_bundler&#45;&gt;do_you_know_es2015</title>
<path fill="none" stroke="black" d="M794.116,-1857.36C772.335,-1842.86 745.982,-1821.8 730,-1796.6 727.631,-1792.86 703.892,-1695.35 686.996,-1625.16"/>
<polygon fill="black" stroke="black" points="690.298,-1623.92 684.557,-1615.02 683.492,-1625.56 690.298,-1623.92"/>
<text text-anchor="middle" x="737" y="-1725.4" font-family="Times,serif" font-size="14.00">否</text>
</g>
<!-- add_bundler -->
<g id="node15" class="node"><title>add_bundler</title>
<polygon fill="none" stroke="black" points="1035,-1779.8 753,-1779.8 753,-1673.8 1035,-1673.8 1035,-1779.8"/>
<text text-anchor="middle" x="894" y="-1764.6" font-family="Times,serif" font-size="14.00">在構建步驟添加一個打包的過程</text>
<text text-anchor="middle" x="894" y="-1745" font-family="Times,serif" font-size="14.00">    能夠很好的管理依賴並且更有效地傳輸</text>
<text text-anchor="middle" x="894" y="-1725.4" font-family="Times,serif" font-size="14.00"> &#160;&#160;&#160;JavaScript 程式碼。</text>
<text text-anchor="middle" x="894" y="-1705.8" font-family="Times,serif" font-size="14.00"> &#160;&#160;&#160;使用 Google Page Speed 來測量做得</text>
<text text-anchor="middle" x="894" y="-1686.2" font-family="Times,serif" font-size="14.00">    怎麼樣，別忘了壓縮和環境化你的代碼。</text>
</g>
<!-- are_you_working_on_production_app_without_bundler&#45;&gt;add_bundler -->
<g id="edge18" class="edge"><title>are_you_working_on_production_app_without_bundler&#45;&gt;add_bundler</title>
<path fill="none" stroke="black" d="M841.545,-1853.52C848.87,-1835.96 858.962,-1811.77 868.339,-1789.3"/>
<polygon fill="black" stroke="black" points="871.684,-1790.37 872.304,-1779.8 865.223,-1787.68 871.684,-1790.37"/>
<text text-anchor="middle" x="863" y="-1823" font-family="Times,serif" font-size="14.00">是</text>
</g>
<!-- use_es5 -->
<g id="node16" class="node"><title>use_es5</title>
<polygon fill="none" stroke="black" points="826.369,-1279 477.631,-1279 477.631,-1125.8 826.369,-1125.8 826.369,-1279"/>
<text text-anchor="middle" x="652" y="-1264" font-family="Times,serif" font-size="14.00">先别用 ES2015。學習 React 不需要它。</text>
<text text-anchor="middle" x="652" y="-1244.4" font-family="Times,serif" font-size="14.00"> &#160;&#160;&#160;第三方函式庫在原碼裡通常使用 ES2015 的語法，</text>
<text text-anchor="middle" x="652" y="-1224.8" font-family="Times,serif" font-size="14.00"> &#160;&#160;&#160;但是如果你只是學習 React 還用不到第三方函式庫。</text>
<text text-anchor="middle" x="652" y="-1205.2" font-family="Times,serif" font-size="14.00"> &#160;&#160;&#160;當你想要更新你的 JavaScript 知識時：</text>
<text text-anchor="middle" x="652" y="-1185.6" font-family="Times,serif" font-size="14.00"> &#160;&#160;&#160;https://leanpub.com/understandinges6/read</text>
<text text-anchor="middle" x="652" y="-1171.6" font-family="Times,serif" font-size="14.00"> &#160;&#160;&#160;是超棒的指南.使用在線工具：</text>
<text text-anchor="middle" x="652" y="-1152" font-family="Times,serif" font-size="14.00"> &#160;&#160;&#160;http://babeljs.io/repl</text>
<text text-anchor="middle" x="652" y="-1138" font-family="Times,serif" font-size="14.00"> &#160;&#160;&#160;來驗證你的各種假設。</text>
</g>
<!-- do_you_know_es2015&#45;&gt;use_es5 -->
<g id="edge22" class="edge"><title>do_you_know_es2015&#45;&gt;use_es5</title>
<path fill="none" stroke="black" d="M666.657,-1487.41C663.772,-1431.51 659.584,-1350.36 656.423,-1289.1"/>
<polygon fill="black" stroke="black" points="659.916,-1288.87 655.905,-1279.06 652.925,-1289.23 659.916,-1288.87"/>
<text text-anchor="middle" x="673" y="-1457.2" font-family="Times,serif" font-size="14.00">否</text>
</g>
<!-- are_you_using_dangerous_features -->
<g id="node17" class="node"><title>are_you_using_dangerous_features</title>
<polygon fill="none" stroke="black" points="850,-1430.6 680,-1364 850,-1297.4 1020,-1364 850,-1430.6"/>
<text text-anchor="middle" x="850" y="-1382.2" font-family="Times,serif" font-size="14.00">你在使用一些沒有加入到</text>
<text text-anchor="middle" x="850" y="-1362.6" font-family="Times,serif" font-size="14.00"> &#160;&#160;&#160;ES2015 的試驗特性吗</text>
<text text-anchor="middle" x="850" y="-1343" font-family="Times,serif" font-size="14.00"> &#160;&#160;&#160;(例如 decorators)?</text>
</g>
<!-- do_you_know_es2015&#45;&gt;are_you_using_dangerous_features -->
<g id="edge23" class="edge"><title>do_you_know_es2015&#45;&gt;are_you_using_dangerous_features</title>
<path fill="none" stroke="black" d="M717.764,-1502.52C742.136,-1477.18 771.851,-1446.27 796.935,-1420.18"/>
<polygon fill="black" stroke="black" points="799.471,-1422.6 803.879,-1412.96 794.425,-1417.74 799.471,-1422.6"/>
<text text-anchor="middle" x="772" y="-1457.2" font-family="Times,serif" font-size="14.00">是</text>
</g>
<!-- remove_bundler&#45;&gt;do_you_know_es2015 -->
<g id="edge21" class="edge"><title>remove_bundler&#45;&gt;do_you_know_es2015</title>
<path fill="none" stroke="black" d="M594.523,-1656.99C604.729,-1643.09 615.389,-1628.57 625.375,-1614.97"/>
<polygon fill="black" stroke="black" points="628.398,-1616.77 631.495,-1606.64 622.755,-1612.62 628.398,-1616.77"/>
</g>
<!-- add_bundler&#45;&gt;do_you_know_es2015 -->
<g id="edge20" class="edge"><title>add_bundler&#45;&gt;do_you_know_es2015</title>
<path fill="none" stroke="black" d="M825.88,-1673.61C797.764,-1652.07 765.266,-1627.18 737.242,-1605.71"/>
<polygon fill="black" stroke="black" points="739.149,-1602.76 729.082,-1599.46 734.892,-1608.32 739.149,-1602.76"/>
</g>
<!-- do_you_update_packages_asap -->
<g id="node18" class="node"><title>do_you_update_packages_asap</title>
<polygon fill="none" stroke="black" points="870,-845.599 714,-798.198 870,-750.798 1026,-798.198 870,-845.599"/>
<text text-anchor="middle" x="870" y="-806.598" font-family="Times,serif" font-size="14.00">當依賴的庫有重大版本</text>
<text text-anchor="middle" x="870" y="-786.998" font-family="Times,serif" font-size="14.00">    更新時你會跟上嗎？</text>
</g>
<!-- use_es5&#45;&gt;do_you_update_packages_asap -->
<g id="edge24" class="edge"><title>use_es5&#45;&gt;do_you_update_packages_asap</title>
<path fill="none" stroke="black" d="M688.212,-1125.57C722.058,-1056.19 775.041,-951.279 827,-863.398 830.271,-857.866 833.823,-852.156 837.437,-846.529"/>
<polygon fill="black" stroke="black" points="840.605,-848.079 843.136,-837.791 834.741,-844.255 840.605,-848.079"/>
</g>
<!-- are_you_using_dangerous_features&#45;&gt;do_you_update_packages_asap -->
<g id="edge26" class="edge"><title>are_you_using_dangerous_features&#45;&gt;do_you_update_packages_asap</title>
<path fill="none" stroke="black" d="M851.054,-1297.59C852.445,-1220.27 855.286,-1087.73 860,-973.998 861.648,-934.226 864.227,-889.404 866.353,-855.106"/>
<polygon fill="black" stroke="black" points="869.865,-855.016 866.997,-844.817 862.879,-854.578 869.865,-855.016"/>
<text text-anchor="middle" x="868" y="-944.798" font-family="Times,serif" font-size="14.00">否</text>
</g>
<!-- can_you_spend_days_on_your_tooling -->
<g id="node19" class="node"><title>can_you_spend_days_on_your_tooling</title>
<polygon fill="none" stroke="black" points="1108,-1107.4 869.324,-1040.8 1108,-974.198 1346.68,-1040.8 1108,-1107.4"/>
<text text-anchor="middle" x="1108" y="-1059" font-family="Times,serif" font-size="14.00">您能每隔幾週就花上幾天时间</text>
<text text-anchor="middle" x="1108" y="-1039.4" font-family="Times,serif" font-size="14.00"> &#160;&#160;&#160;来修復工具鏈導致的 Bug，不相容</text>
<text text-anchor="middle" x="1108" y="-1019.8" font-family="Times,serif" font-size="14.00"> &#160;&#160;&#160;和標準的變動嗎？</text>
</g>
<!-- are_you_using_dangerous_features&#45;&gt;can_you_spend_days_on_your_tooling -->
<g id="edge25" class="edge"><title>are_you_using_dangerous_features&#45;&gt;can_you_spend_days_on_your_tooling</title>
<path fill="none" stroke="black" d="M890.312,-1312.81C935.682,-1256.33 1009.42,-1164.53 1058.31,-1103.66"/>
<polygon fill="black" stroke="black" points="1061.21,-1105.64 1064.74,-1095.65 1055.75,-1101.25 1061.21,-1105.64"/>
<text text-anchor="middle" x="1045" y="-1201" font-family="Times,serif" font-size="14.00">是</text>
</g>
<!-- give_it_two_months -->
<g id="node21" class="node"><title>give_it_two_months</title>
<polygon fill="none" stroke="black" points="947.369,-695.498 598.631,-695.498 598.631,-536.099 947.369,-536.099 947.369,-695.498"/>
<text text-anchor="middle" x="773" y="-680.198" font-family="Times,serif" font-size="14.00">除非是 React 這種每次發布前經過嚴格測試的函式庫，</text>
<text text-anchor="middle" x="773" y="-660.598" font-family="Times,serif" font-size="14.00">    否則你應該讓更新的速度慢下來。</text>
<text text-anchor="middle" x="773" y="-640.999" font-family="Times,serif" font-size="14.00">    你可以在分支裡嘗試依賴函式庫的新版本，</text>
<text text-anchor="middle" x="773" y="-621.399" font-family="Times,serif" font-size="14.00">    直到社區發現和修復了絕大部分的問題。</text>
<text text-anchor="middle" x="773" y="-601.799" font-family="Times,serif" font-size="14.00">    不要因為怕落後就做決定。</text>
<text text-anchor="middle" x="773" y="-582.199" font-family="Times,serif" font-size="14.00">    要查找舊版本的文檔，別忘了查看 Github 上</text>
<text text-anchor="middle" x="773" y="-562.599" font-family="Times,serif" font-size="14.00"> &#160;&#160;&#160;带 Tag 的發布版本，比如</text>
<text text-anchor="middle" x="773" y="-542.999" font-family="Times,serif" font-size="14.00"> &#160;&#160;&#160;https://github.com/reactjs/react&#45;router/tree/0.13.x/doc</text>
</g>
<!-- do_you_update_packages_asap&#45;&gt;give_it_two_months -->
<g id="edge30" class="edge"><title>do_you_update_packages_asap&#45;&gt;give_it_two_months</title>
<path fill="none" stroke="black" d="M848.473,-757.162C840.079,-741.551 830.104,-723 820.202,-704.584"/>
<polygon fill="black" stroke="black" points="823.172,-702.718 815.354,-695.568 817.007,-706.033 823.172,-702.718"/>
<text text-anchor="middle" x="840" y="-721.798" font-family="Times,serif" font-size="14.00">会</text>
</g>
<!-- consider_updating_react -->
<g id="node22" class="node"><title>consider_updating_react</title>
<polygon fill="none" stroke="black" points="1289,-678.399 965,-678.399 965,-553.199 1289,-553.199 1289,-678.399"/>
<text text-anchor="middle" x="1127" y="-663.398" font-family="Times,serif" font-size="14.00">這是個好決定。</text>
<text text-anchor="middle" x="1127" y="-643.799" font-family="Times,serif" font-size="14.00">    不過我們還是鼓勵你在 React 新版本出來的時候</text>
<text text-anchor="middle" x="1127" y="-624.199" font-family="Times,serif" font-size="14.00">    （在分支裡）嘗試它。與社區模塊不同，React</text>
<text text-anchor="middle" x="1127" y="-604.599" font-family="Times,serif" font-size="14.00"> &#160;&#160;&#160;經過了 Facebook 的嚴格測試。</text>
<text text-anchor="middle" x="1127" y="-584.999" font-family="Times,serif" font-size="14.00">    要留意發布日誌，因為它們通常連接到能夠自動</text>
<text text-anchor="middle" x="1127" y="-565.399" font-family="Times,serif" font-size="14.00">    化一部分遷移過程的 codemods。</text>
</g>
<!-- do_you_update_packages_asap&#45;&gt;consider_updating_react -->
<g id="edge31" class="edge"><title>do_you_update_packages_asap&#45;&gt;consider_updating_react</title>
<path fill="none" stroke="black" d="M916.243,-764.738C948.084,-742.388 991.549,-711.877 1030.74,-684.369"/>
<polygon fill="black" stroke="black" points="1032.86,-687.159 1039.03,-678.549 1028.83,-681.429 1032.86,-687.159"/>
<text text-anchor="middle" x="997" y="-721.798" font-family="Times,serif" font-size="14.00">不会</text>
</g>
<!-- can_you_spend_days_on_your_tooling&#45;&gt;do_you_update_packages_asap -->
<g id="edge27" class="edge"><title>can_you_spend_days_on_your_tooling&#45;&gt;do_you_update_packages_asap</title>
<path fill="none" stroke="black" d="M1018.75,-999.089C982.856,-979.049 943.535,-951.921 916,-918.398 900.424,-899.435 889.72,-874.601 882.586,-852.512"/>
<polygon fill="black" stroke="black" points="885.922,-851.452 879.649,-842.914 879.228,-853.5 885.922,-851.452"/>
<text text-anchor="middle" x="923" y="-898.998" font-family="Times,serif" font-size="14.00">能</text>
</g>
<!-- stick_to_es2015 -->
<g id="node20" class="node"><title>stick_to_es2015</title>
<polygon fill="none" stroke="black" points="1211.18,-918.398 938.817,-918.398 938.817,-882.398 1211.18,-882.398 1211.18,-918.398"/>
<text text-anchor="middle" x="1075" y="-898.998" font-family="Times,serif" font-size="14.00">堅持只用 ES2015，JSX 和属性傳遞操作。</text>
</g>
<!-- can_you_spend_days_on_your_tooling&#45;&gt;stick_to_es2015 -->
<g id="edge28" class="edge"><title>can_you_spend_days_on_your_tooling&#45;&gt;stick_to_es2015</title>
<path fill="none" stroke="black" d="M1093.33,-978.288C1089.19,-960.914 1084.89,-942.885 1081.5,-928.656"/>
<polygon fill="black" stroke="black" points="1084.82,-927.504 1079.1,-918.589 1078.01,-929.128 1084.82,-927.504"/>
<text text-anchor="middle" x="1101" y="-944.798" font-family="Times,serif" font-size="14.00">不能</text>
</g>
<!-- stick_to_es2015&#45;&gt;do_you_update_packages_asap -->
<g id="edge29" class="edge"><title>stick_to_es2015&#45;&gt;do_you_update_packages_asap</title>
<path fill="none" stroke="black" d="M1039.76,-882.173C1011.81,-868.51 971.904,-849.007 937.809,-832.342"/>
<polygon fill="black" stroke="black" points="939.341,-829.195 928.82,-827.948 936.267,-835.484 939.341,-829.195"/>
</g>
<!-- are_you_still_sad -->
<g id="node23" class="node"><title>are_you_still_sad</title>
<polygon fill="none" stroke="black" points="990,-499.299 890,-471.599 990,-443.899 1090,-471.599 990,-499.299"/>
<text text-anchor="middle" x="990" y="-470.199" font-family="Times,serif" font-size="14.00">你還難過嗎？</text>
</g>
<!-- give_it_two_months&#45;&gt;are_you_still_sad -->
<g id="edge32" class="edge"><title>give_it_two_months&#45;&gt;are_you_still_sad</title>
<path fill="none" stroke="black" d="M893.241,-536.005C914.891,-521.818 935.911,-508.044 952.797,-496.978"/>
<polygon fill="black" stroke="black" points="954.786,-499.86 961.231,-491.451 950.949,-494.005 954.786,-499.86"/>
</g>
<!-- consider_updating_react&#45;&gt;are_you_still_sad -->
<g id="edge33" class="edge"><title>consider_updating_react&#45;&gt;are_you_still_sad</title>
<path fill="none" stroke="black" d="M1067.31,-552.842C1049.99,-534.869 1031.91,-516.103 1017.6,-501.242"/>
<polygon fill="black" stroke="black" points="1019.93,-498.625 1010.48,-493.852 1014.89,-503.482 1019.93,-498.625"/>
</g>
<!-- rant -->
<g id="node24" class="node"><title>rant</title>
<polygon fill="none" stroke="black" points="997,-388.199 729,-388.199 729,-232.999 997,-232.999 997,-388.199"/>
<text text-anchor="middle" x="863" y="-357.199" font-family="Times,serif" font-size="14.00"> &#160;&#160;&#160;把你遇到的問題寫成有建設性的博客，</text>
<text text-anchor="middle" x="863" y="-337.599" font-family="Times,serif" font-size="14.00">    避免人身攻擊。</text>
<text text-anchor="middle" x="863" y="-317.999" font-family="Times,serif" font-size="14.00">    有禮貌。</text>
<text text-anchor="middle" x="863" y="-298.399" font-family="Times,serif" font-size="14.00">    幫助社區來尋找解決方案。</text>
<text text-anchor="middle" x="863" y="-278.8" font-family="Times,serif" font-size="14.00">    考慮一下其它更符合你的需求的技術</text>
<text text-anchor="middle" x="863" y="-259.2" font-family="Times,serif" font-size="14.00"> &#160;&#160;&#160;（比如 Ember）。</text>
<text text-anchor="middle" x="863" y="-239.6" font-family="Times,serif" font-size="14.00"> &#160;&#160;&#160;</text>
</g>
<!-- are_you_still_sad&#45;&gt;rant -->
<g id="edge34" class="edge"><title>are_you_still_sad&#45;&gt;rant</title>
<path fill="none" stroke="black" d="M972.341,-448.491C961.259,-434.616 946.188,-415.748 930.78,-396.458"/>
<polygon fill="black" stroke="black" points="933.377,-394.101 924.402,-388.472 927.908,-398.47 933.377,-394.101"/>
<text text-anchor="middle" x="959" y="-414.799" font-family="Times,serif" font-size="14.00">是</text>
</g>
<!-- happy -->
<g id="node25" class="node"><title>happy</title>
<polygon fill="none" stroke="black" points="1149.87,-195.8 818.131,-195.8 818.131,-159.8 1149.87,-159.8 1149.87,-195.8"/>
<text text-anchor="middle" x="984" y="-176.4" font-family="Times,serif" font-size="14.00">React 讓你愉快開發！又或者至少不再難過地開發。</text>
</g>
<!-- are_you_still_sad&#45;&gt;happy -->
<g id="edge35" class="edge"><title>are_you_still_sad&#45;&gt;happy</title>
<path fill="none" stroke="black" d="M996.164,-445.599C999.834,-429.404 1004.13,-407.791 1006,-388.399 1012.64,-319.563 1019.29,-300.665 1006,-232.8 1004.21,-223.66 1000.86,-214.115 997.314,-205.637"/>
<polygon fill="black" stroke="black" points="1000.4,-203.969 993.132,-196.263 994.01,-206.821 1000.4,-203.969"/>
<text text-anchor="middle" x="1020" y="-309.199" font-family="Times,serif" font-size="14.00">否</text>
</g>
<!-- rant&#45;&gt;happy -->
<g id="edge36" class="edge"><title>rant&#45;&gt;happy</title>
<path fill="none" stroke="black" d="M934.086,-232.756C943.854,-222.198 953.241,-212.05 961.187,-203.46"/>
<polygon fill="black" stroke="black" points="963.828,-205.76 968.049,-196.042 958.689,-201.006 963.828,-205.76"/>
</g>
<!-- share -->
<g id="node26" class="node"><title>share</title>
<path fill="none" stroke="black" d="M1125.72,-122.7C1125.72,-122.7 842.282,-122.7 842.282,-122.7 836.282,-122.7 830.282,-116.7 830.282,-110.7 830.282,-110.7 830.282,-12.1 830.282,-12.1 830.282,-6.09997 836.282,-0.0999652 842.282,-0.0999652 842.282,-0.0999652 1125.72,-0.0999652 1125.72,-0.0999652 1131.72,-0.0999652 1137.72,-6.09997 1137.72,-12.1 1137.72,-12.1 1137.72,-110.7 1137.72,-110.7 1137.72,-116.7 1131.72,-122.7 1125.72,-122.7"/>
<text text-anchor="middle" x="984" y="-107.6" font-family="Times,serif" font-size="14.00">分享這個流程圖</text>
<text text-anchor="middle" x="984" y="-87.9998" font-family="Times,serif" font-size="14.00"> &#160;&#160;&#160;https://github.com/gaearon/react&#45;makes&#45;you&#45;sad</text>
<text text-anchor="middle" x="984" y="-73.9998" font-family="Times,serif" font-size="14.00"> &#160;&#160;&#160;基於和啟發</text>
<text text-anchor="middle" x="984" y="-54.3999" font-family="Times,serif" font-size="14.00"> &#160;&#160;&#160;https://github.com/petehunt/react&#45;howto</text>
<text text-anchor="middle" x="984" y="-40.3999" font-family="Times,serif" font-size="14.00"> &#160;&#160;&#160;翻體中文翻译</text>
<text text-anchor="middle" x="984" y="-20.8" font-family="Times,serif" font-size="14.00"> &#160;&#160;&#160;https://github.com/roth1002/react&#45;makes&#45;you&#45;sad</text>
<text text-anchor="middle" x="984" y="-6.8" font-family="Times,serif" font-size="14.00"> &#160;&#160;&#160;</text>
</g>
<!-- happy&#45;&gt;share -->
<g id="edge37" class="edge"><title>happy&#45;&gt;share</title>
<path fill="none" stroke="black" d="M984,-159.425C984,-151.924 984,-142.61 984,-132.744"/>
<polygon fill="black" stroke="black" points="987.5,-132.74 984,-122.74 980.5,-132.741 987.5,-132.74"/>
</g>
</g>
</svg>
